<?xml version="1.0" encoding="utf-8"?>
<!-- Generator: Adobe Illustrator 18.1.1, SVG Export Plug-In . SVG Version: 6.00 Build 0)  -->
<svg version="1.1" xmlns="http://www.w3.org/2000/svg" xmlns:xlink="http://www.w3.org/1999/xlink" x="0px" y="0px"
	 viewBox="-326.1 348.1 155 155" enable-background="new -326.1 348.1 155 155" xml:space="preserve">
<g id="Layer_2">
</g>
<g id="Layer_3">
	<path fill="none" stroke="#CCCCCC" stroke-width="10" stroke-linecap="round" stroke-miterlimit="10" d="M-238.7,434.9
		c17.2-17.5,16.9-45.6-0.6-62.7c-17.5-17.2-45.6-16.9-62.7,0.6c-17.2,17.5-16.9,45.6,0.6,62.7c17.2,16.9,44.9,16.9,62.1,0l49.3,49.3
		 M-216.4,450.8l31.9,31.9l-7.5,7.5l-31.9-31.9"/>
</g>
<g id="Layer_1" sodipodi:docname="WMF-Agora-Settings_424242.svg" inkscape:version="0.48.3.1 r9886" xmlns:cc="http://creativecommons.org/ns#" xmlns:dc="http://purl.org/dc/elements/1.1/" xmlns:svg="http://www.w3.org/2000/svg" xmlns:sodipodi="http://sodipodi.sourceforge.net/DTD/sodipodi-0.dtd" xmlns:rdf="http://www.w3.org/1999/02/22-rdf-syntax-ns#" xmlns:inkscape="http://www.inkscape.org/namespaces/inkscape">
	
		<sodipodi:namedview  inkscape:current-layer="Layer_1" inkscape:window-maximized="1" inkscape:window-y="27" inkscape:window-x="0" inkscape:guide-bbox="true" inkscape:window-height="1024" inkscape:window-width="1920" inkscape:pageopacity="0" inkscape:pageshadow="2" pagecolor="#ffffff" id="namedview3" gridtolerance="10" showgrid="false" borderopacity="1" showguides="true" inkscape:cx="-20.837792" inkscape:zoom="11.313708" guidetolerance="10" objecttolerance="10" inkscape:cy="29.184755" bordercolor="#666666">
		</sodipodi:namedview>
	<path id="rect3381-0_1_" inkscape:connector-curvature="0" fill="#BCBCBC" d="M-274.7,371.2c-1.1,0-2,0.9-2,2v5
		c-2.5,0.6-5,1.6-7.3,3l-3.5-3.5c-0.8-0.8-2-0.8-2.8,0l-6.4,6.4c-0.8,0.8-0.8,2,0,2.8l3.5,3.5c-1.4,2.3-2.3,4.8-2.9,7.3h-5
		c-1.1,0-2,0.9-2,2v9c0,1.1,0.9,2,2,2h4.9c0.6,2.5,1.6,5,3,7.3l-3.5,3.5c-0.8,0.8-0.8,2,0,2.8l6.4,6.4c0.8,0.8,2,0.8,2.8,0l3.5-3.5
		c2.3,1.4,4.7,2.3,7.3,2.9v5c0,1.1,0.9,2,2,2h9c1.1,0,2-0.9,2-2v-5c2.5-0.6,5-1.6,7.3-2.9l3.5,3.5c0.8,0.8,2,0.8,2.8,0l6.4-6.4
		c0.8-0.8,0.8-2,0-2.8l-3.5-3.5c1.4-2.3,2.4-4.8,3-7.3h5c1.1,0,2-0.9,2-2v-9c0-1.1-0.9-2-2-2h-5c-0.6-2.5-1.7-5-3-7.3l3.5-3.5
		c0.8-0.8,0.8-2,0-2.8l-6.4-6.4c-0.8-0.8-2-0.8-2.8,0l-3.5,3.5c-2.3-1.4-4.8-2.4-7.3-3v-5c0-1.1-0.9-2-2-2
		C-265.7,371.2-274.7,371.2-274.7,371.2z M-270.5,391.7c3.2-0.1,6.4,1,8.9,3.4c5,4.7,5.2,12.6,0.5,17.6c-4.7,5-12.6,5.2-17.6,0.5
		c-5-4.7-5.2-12.6-0.5-17.6C-276.8,393.1-273.7,391.8-270.5,391.7z"/>
</g>
<g id="Layer_4">
</g>
</svg>
