<?xml version="1.0" encoding="utf-8"?>
<!-- Generator: Adobe Illustrator 18.1.1, SVG Export Plug-In . SVG Version: 6.00 Build 0)  -->
<svg version="1.1" xmlns="http://www.w3.org/2000/svg" xmlns:xlink="http://www.w3.org/1999/xlink" x="0px" y="0px"
	 viewBox="-289 381 32 32" enable-background="new -289 381 32 32" xml:space="preserve">
<g id="Layer_2">
	
		<image overflow="visible" width="1024" height="1024" xlink:href="Google_Chrome_icon_(2011).svg.png"  transform="matrix(1.123047e-02 0 0 1.123047e-02 -278.75 391.25)">
	</image>
</g>
<g id="Layer_1" sodipodi:docname="WMF-Agora-Settings_424242.svg" inkscape:version="0.48.3.1 r9886" xmlns:cc="http://creativecommons.org/ns#" xmlns:dc="http://purl.org/dc/elements/1.1/" xmlns:svg="http://www.w3.org/2000/svg" xmlns:sodipodi="http://sodipodi.sourceforge.net/DTD/sodipodi-0.dtd" xmlns:rdf="http://www.w3.org/1999/02/22-rdf-syntax-ns#" xmlns:inkscape="http://www.inkscape.org/namespaces/inkscape">
	
		<sodipodi:namedview  inkscape:current-layer="Layer_1" inkscape:window-maximized="1" inkscape:window-y="27" inkscape:window-x="0" inkscape:guide-bbox="true" inkscape:window-height="1024" inkscape:window-width="1920" inkscape:pageopacity="0" inkscape:pageshadow="2" pagecolor="#ffffff" id="namedview3" gridtolerance="10" showgrid="false" borderopacity="1" showguides="true" inkscape:cx="-20.837792" inkscape:zoom="11.313708" guidetolerance="10" objecttolerance="10" inkscape:cy="29.184755" bordercolor="#666666">
		</sodipodi:namedview>
	<path id="rect3381-0" inkscape:connector-curvature="0" fill="#BCBCBC" d="M-275.2,381c-0.5,0-1,0.4-1,1v2.4
		c-1.2,0.3-2.4,0.8-3.5,1.5l-1.7-1.7c-0.4-0.4-1-0.4-1.4,0l-3.1,3.1c-0.4,0.4-0.4,1,0,1.4l1.7,1.7c-0.7,1.1-1.1,2.3-1.4,3.5h-2.4
		c-0.5,0-1,0.4-1,1v4.4c0,0.5,0.4,1,1,1h2.4c0.3,1.2,0.8,2.4,1.5,3.5l-1.7,1.7c-0.4,0.4-0.4,1,0,1.4l3.1,3.1c0.4,0.4,1,0.4,1.4,0
		l1.7-1.7c1.1,0.7,2.3,1.1,3.5,1.4v2.4c0,0.5,0.4,1,1,1h4.4c0.5,0,1-0.4,1-1v-2.4c1.2-0.3,2.4-0.8,3.5-1.4l1.7,1.7
		c0.4,0.4,1,0.4,1.4,0l3.1-3.1c0.4-0.4,0.4-1,0-1.4l-1.7-1.7c0.7-1.1,1.2-2.3,1.5-3.5h2.4c0.5,0,1-0.4,1-1v-4.4c0-0.5-0.4-1-1-1
		h-2.4c-0.3-1.2-0.8-2.4-1.5-3.5l1.7-1.7c0.4-0.4,0.4-1,0-1.4l-3.1-3.1c-0.4-0.4-1-0.4-1.4,0l-1.7,1.7c-1.1-0.7-2.3-1.2-3.5-1.5V382
		c0-0.5-0.4-1-1-1C-270.8,381-275.2,381-275.2,381z M-273.2,391c1.5,0,3.1,0.5,4.3,1.6c2.4,2.3,2.5,6.1,0.2,8.6
		c-2.3,2.4-6.1,2.5-8.6,0.2c-2.4-2.3-2.5-6.1-0.2-8.6C-276.3,391.6-274.7,391-273.2,391z"/>
</g>
</svg>
